<?xml version="1.0" encoding="UTF-8"?>
<svg id="Layer_2" data-name="Layer 2" xmlns="http://www.w3.org/2000/svg" viewBox="0 0 512.46 74.29">
  <defs>
    <style>
      .cls-1 {
        fill: navy;
      }
    </style>
  </defs>
  <g id="Layer_1-2" data-name="Layer 1">
    <g>
      <path class="cls-1" d="m457.9.16c-20.43,0-36.99,16.56-36.99,36.99s16.56,36.99,36.99,36.99,36.99-16.56,36.99-36.99S478.33.16,457.9.16Zm.09,60.42c-12.94,0-23.43-10.49-23.43-23.43s10.49-23.43,23.43-23.43,23.43,10.49,23.43,23.43-10.49,23.43-23.43,23.43Z"/>
      <polygon class="cls-1" points="202.73 14.97 202.73 1.8 180.85 1.8 167.39 1.8 167.39 72.49 180.85 72.49 202.73 72.49 202.73 59.27 180.85 59.27 180.85 40.67 202.73 40.67 202.73 27.75 180.85 27.75 180.85 14.97 202.73 14.97"/>
      <path class="cls-1" d="m95.66,1.8h13.61v24.37L128.47,1.8h16.17l-24.7,31.55,27.1,39.14h-15.96l-21.8-31.41v31.41h-13.61V1.8Z"/>
      <path class="cls-1" d="m268.38,11.4l-9.97,8.8c-3.5-4.87-7.06-7.31-10.69-7.31-1.77,0-3.21.47-4.34,1.42s-1.69,2.01-1.69,3.2.4,2.31,1.2,3.37c1.09,1.41,4.38,4.44,9.87,9.09,5.14,4.3,8.25,7,9.34,8.13,2.73,2.76,4.66,5.39,5.8,7.91,1.14,2.52,1.71,5.26,1.71,8.25,0,5.8-2.01,10.59-6.02,14.38-4.01,3.78-9.24,5.67-15.69,5.67-5.04,0-9.43-1.23-13.16-3.7-3.74-2.47-6.94-6.35-9.6-11.64l11.32-6.83c3.4,6.25,7.32,9.38,11.75,9.38,2.31,0,4.25-.67,5.83-2.02s2.36-2.9,2.36-4.66c0-1.6-.59-3.21-1.78-4.81-1.19-1.6-3.8-4.05-7.85-7.36-7.71-6.28-12.68-11.13-14.93-14.54s-3.37-6.82-3.37-10.22c0-4.9,1.87-9.11,5.61-12.62,3.74-3.51,8.35-5.26,13.84-5.26,3.53,0,6.89.82,10.08,2.45,3.19,1.64,6.65,4.62,10.37,8.94Z"/>
      <path class="cls-1" d="m357.05,1.8h14.26c7.81,0,14.47.7,17.78,2.09,3.31,1.39,5.98,3.71,8,6.94,2.02,3.24,3.03,7.06,3.03,11.48,0,4.65-1.11,8.53-3.34,11.65-2.23,3.12-5.58,5.49-10.07,7.09l21.75,31.43h-14.72l-20.9-29.94h-2.32v29.94h-13.46V1.8Zm13.46,27.63h5.31c4.28,0,7.23-.56,8.84-1.69,1.61-1.12,2.42-2.99,2.42-5.59,0-1.54-.4-2.88-1.2-4.03-.8-1.14-1.87-1.96-3.21-2.46-1.34-.5-3.8-.75-7.38-.75h-4.78v14.51Z"/>
      <path class="cls-1" d="m36.99.16C16.56.16,0,16.72,0,37.14s16.56,36.99,36.99,36.99,36.99-16.56,36.99-36.99S57.41.16,36.99.16Zm.09,60.42c-12.94,0-23.43-10.49-23.43-23.43s10.49-23.43,23.43-23.43,23.43,10.49,23.43,23.43-10.49,23.43-23.43,23.43Z"/>
      <polygon class="cls-1" points="331.62 1.8 292.06 1.8 290.32 1.8 290.32 15.06 292.06 15.06 305.08 15.06 305.08 72.49 318.74 72.49 318.74 15.06 331.62 15.06 333.36 15.06 333.36 1.8 331.62 1.8"/>
      <path class="cls-1" d="m497.37,4.28c1.72-1.65,3.81-2.48,6.25-2.48s4.53.83,6.25,2.48c1.72,1.65,2.58,3.7,2.58,6.15s-.87,4.46-2.6,6.12c-1.73,1.65-3.81,2.48-6.24,2.48s-4.5-.83-6.24-2.48c-1.73-1.65-2.6-3.69-2.6-6.12s.86-4.5,2.58-6.15Zm1.89,10.52c1.22,1.2,2.68,1.8,4.37,1.8s3.15-.6,4.38-1.8c1.24-1.2,1.85-2.66,1.85-4.37s-.62-3.17-1.85-4.38c-1.24-1.21-2.7-1.82-4.38-1.82s-3.14.61-4.37,1.82c-1.22,1.21-1.84,2.67-1.84,4.38s.61,3.16,1.84,4.37Zm7.69-5.51c0,.9-.4,1.58-1.21,2.04l1.56,2.36h-2.43l-1.18-1.91h-.87v1.91h-2.01v-7h3.12c.92,0,1.66.24,2.2.71.54.47.81,1.1.81,1.89Zm-4.12.8h1.07c.65,0,.97-.28.97-.83s-.32-.8-.97-.8h-1.07v1.63Z"/>
    </g>
  </g>
</svg>